<svg width="123" height="87" viewBox="0 0 123 87" fill="none" xmlns="http://www.w3.org/2000/svg">
<g clip-path="url(#clip0_402_1609)">
<path d="M66.8165 57.4265L66.1837 59.2135L66.8165 59.6733L65.238 64.1456L66.16 65.7596L56.5921 66.236L52.3188 63.0672L59.0403 59.6448L61.7564 55.1583L66.8165 57.4265Z" fill="#A6712A"/>
<path d="M60.3298 52.2881C61.8182 52.5749 62.1879 54.4473 62.1879 54.4473L61.7565 55.1583L59.0405 59.6448L52.319 63.0672L46.7043 65.9254C46.4839 66.0392 46.2422 66.1008 45.9957 66.1079L45.1804 66.1316C44.9457 66.1387 44.7111 66.1435 44.4765 66.1435C43.5853 66.1435 42.6966 66.089 41.8102 65.9823C41.4404 65.9373 41.0683 66.0155 40.7507 66.2075L30.3841 72.417L28.0544 72.6043L28.3601 68.779L27.0423 68.8856L26.7413 65.1101L24.2338 63.5957L24.0371 61.1569L32.2944 56.13L33.714 56.0162L36.5937 54.7009L36.8496 53.6154L37.8498 53.7339L40.938 52.7076L40.8124 51.1552L37.6341 51.0249L41.2982 50.731L43.0426 49.2497L42.9478 48.0884L42.3979 47.6997L41.6703 47.7732C41.6703 47.7732 43.8626 46.5194 42.7369 45.4316L40.3455 45.3107C40.3455 45.3107 39.9757 45.2396 39.4828 45.1021L41.8244 43.7441L42.5164 43.327L42.5757 43.4265L43.6043 44.6613L46.0265 46.6308L48.5316 46.3322L50.5201 44.7348L52.6318 43.0402L52.9139 42.9549L53.9235 42.6444L55.0303 42.623L56.4737 43.5995L56.5922 45.0879L56.0139 46.3322L57.2511 46.235L58.5949 47.2257L58.9006 48.5671L58.2726 49.6621L59.8558 50.0911L60.7208 51.6174L60.3298 52.2881Z" fill="#F0C85E"/>
<path d="M53.0555 41.1655L53.4419 41.7556L53.4229 42.3102L52.9133 42.9525V42.9549L52.6313 43.0402L50.5196 44.7348L50.3323 42.3789L49.3535 41.3835L49.7801 40.8597L49.9389 40.9901L51.515 41.2887L53.0555 41.1655Z" fill="#F0C85E"/>
<path d="M42.5163 43.327L41.8242 43.7441L41.6275 43.7915L40.433 44.0712L38.1672 44.166L37.1007 43.9124L36.4134 43.7488L36.0508 43.6043L35.1265 42.5638L35.3255 41.9049L36.2522 41.7438L36.7239 41.6632L38.7598 40.8503L40.5112 39.6889L40.9544 39.3097L42.7438 39.1652L44.3199 40.4047L44.5948 40.5114L46.9128 41.4072L49.3539 41.3835L50.3327 42.379L50.52 44.7348L48.5315 46.3322L46.0263 46.6308L43.6042 44.6613L42.5755 43.4265L42.5163 43.327Z" fill="#A6712A"/>
<path d="M49.7809 40.8598L49.3543 41.3836L46.9131 41.4073L44.5952 40.5114L46.1903 39.2576L47.4582 38.9045L47.9488 39.3714L49.7809 40.8598Z" fill="#F0C85E"/>
<path d="M39.0277 47.7851H39.0301L40.3384 47.9083L41.6703 47.7732L42.398 47.6998L42.9478 48.0884L43.0426 49.2498L41.2982 50.7311L37.6341 51.0249L34.2047 50.2594L31.7256 49.0199L30.5998 48.4558L30.4932 47.1357L31.0288 45.7089L32.3963 45.005L32.7352 45.3984L37.7171 47.6168L39.0277 47.7851Z" fill="#A6712A"/>
<path d="M32.3963 45.005L31.3037 43.7394L32.01 41.7319L33.6595 41.2556L36.2524 41.739V41.7438L35.3257 41.9049L35.1266 42.5638L36.0509 43.6043L36.4136 43.7489L37.1009 43.9124C37.499 44.4717 38.6627 44.877 39.4828 45.1022C39.9757 45.2396 40.3455 45.3107 40.3455 45.3107L42.7369 45.4316C43.8626 46.5194 41.6703 47.7732 41.6703 47.7732L40.3384 47.9083L39.0301 47.7851H39.0277L37.7171 47.6168L32.7352 45.3984L32.3963 45.005Z" fill="#A6712A"/>
<path d="M41.8246 43.7441L39.483 45.1021C38.6629 44.877 37.4992 44.4717 37.1011 43.9124L38.1676 44.1659L40.4334 44.0711L41.6279 43.7915L41.8246 43.7441Z" fill="#BA862B"/>
<path d="M40.8125 51.1553L40.9381 52.7076L37.8499 53.7339L36.8497 53.6154L35.2381 53.4234L33.0885 52.9044L31.1782 52.4446L30.8843 52.0393L30.7231 50.0176L31.7257 49.0198L34.2048 50.2594L37.6342 51.0249L40.8125 51.1553Z" fill="#A6712A"/>
<path d="M35.2383 53.4235L36.8499 53.6154L36.594 54.7009L33.7143 56.0163L32.2947 56.1301L30.7897 56.2509L29.9673 55.1868L30.4721 53.3713L30.8395 53.0845L33.0886 52.9068V52.9044L35.2383 53.4235Z" fill="#A6712A"/>
<path opacity="0.25" d="M52.926 42.9407L52.5705 43.0924L50.5204 44.7372L50.4967 44.4362L50.4849 44.2821L52.58 42.8577L53.0374 42.7985" fill="#020202"/>
<path opacity="0.25" d="M60.3086 52.2835L57.3413 57.3909L60.7186 52.4067C60.7186 52.4067 60.5267 52.2574 60.3086 52.2835Z" fill="#020202"/>
<path opacity="0.25" d="M58.2729 49.6645L55.6279 54.2695L58.901 49.8328L58.2729 49.6645Z" fill="#020202"/>
<path opacity="0.25" d="M56.0136 46.3346L54.3237 49.9631L56.5919 46.2872L56.0136 46.3346Z" fill="#020202"/>
<path opacity="0.25" d="M61.6213 55.3787L59.0403 59.6448L52.5677 62.9415L52.3188 63.0695L52.4231 63.1477L52.4634 63.1762L59.384 59.8984L62.2209 55.3668L61.7564 55.1583L61.7351 55.1962L61.6213 55.3787Z" fill="#020202"/>
<path opacity="0.13" d="M32.3847 44.9931L32.1216 45.14L32.3847 45.6946L37.4755 48.0102L40.2627 48.3064L42.3981 47.7021L40.45 47.9083L37.7173 47.6191L32.7354 45.4008L32.3847 44.9931Z" fill="#020202"/>
<path opacity="0.13" d="M31.7251 49.0198L34.2042 50.2594L37.6337 51.0249L39.9682 51.1221L37.6028 51.2382L34.0572 50.6125L31.5308 49.2142L31.7251 49.0198Z" fill="#020202"/>
<path opacity="0.13" d="M34.8015 53.459L32.3556 53.6533L33.7943 53.3381L33.1212 53.1343L30.8364 53.0869L33.0098 52.9139L34.8015 53.2836V53.459Z" fill="#020202"/>
<path opacity="0.13" d="M34.8018 53.459V53.2836L36.8495 53.6154L36.8068 53.8026L34.6074 53.4732L34.8018 53.459Z" fill="#020202"/>
<path opacity="0.13" d="M35.3972 41.8907L35.3261 41.905L35.127 42.5638L36.0513 43.6067L37.1012 43.9124L37.3785 44.1944L35.9778 43.8934L34.9492 42.7511L35.2976 41.9097L35.3972 41.8907Z" fill="#020202"/>
<path opacity="0.54" d="M38.1677 44.166L37.1035 43.9124L37.3808 44.1944C37.3808 44.1944 37.9757 44.7111 39.4546 45.1045L41.7228 43.8057L41.6303 43.7915L40.4358 44.0712L38.17 44.166H38.1677Z" fill="black"/>
<path d="M119.076 43.218L66.5156 51.5132V51.6862H121.66L119.076 43.218Z" fill="#F0C85E"/>
<path d="M102.182 35.2664L64.956 48.3444L63.6406 49.027L107.541 41.8433L102.182 35.2664Z" fill="#F0C85E"/>
<path d="M90.9295 33.6595L62.9889 45.6307L62.9131 45.4837L85.3599 26.765L90.9295 33.6595Z" fill="#F0C85E"/>
<path d="M59.877 41.438L60.0239 40.9901L66.3804 28.379L73.647 31.0619L59.877 41.438Z" fill="#F0C85E"/>
<path d="M24.2386 53.0442L2.20889 66.5724L0 58.6328L24.1082 52.6602L24.2386 53.0442Z" fill="#F0C85E"/>
<path d="M26.6486 47.8965L3.5429 53.7386L2.50244 45.5335L26.6462 47.4912L26.6486 47.8965Z" fill="#F0C85E"/>
<path d="M27.2767 43.5166L11.3618 40.0468L12.99 35.0034L27.3881 43.282L27.2767 43.5166Z" fill="#F0C85E"/>
<path d="M32.9651 37.0037L32.6783 37.2882L15.0356 25.0966L21.1433 18.989L32.9651 37.0037Z" fill="#F0C85E"/>
<path d="M49.4136 35.9348L49.1861 35.8945L43.3818 0.329438L53.1844 0L49.4136 35.9348Z" fill="#F0C85E"/>
<path d="M41.7557 33.9368L41.6064 34.0861L33.252 24.0228L40.3503 20.2521L41.7557 33.9368Z" fill="#F0C85E"/>
<path d="M55.2626 38.1153L55.1299 38.1698L56.8577 14.5664L63.5981 13.7677L55.2626 38.1153Z" fill="#F0C85E"/>
<path d="M68.6982 55.355H77.7519V57.7346H74.7158V64.9917H71.7367V57.7346H68.7006V55.355H68.6982Z" fill="white"/>
<path d="M79.1123 55.355H82.0915V58.7276H85.3456V55.355H88.3366V64.9917H85.3456V61.0929H82.0915V64.9917H79.1123V55.355Z" fill="white"/>
<path d="M90.4316 55.355H93.4155V64.9917H90.4316V55.355Z" fill="white"/>
<path d="M95.0342 61.804L97.8688 61.6262C97.9304 62.086 98.056 62.4368 98.2432 62.6785C98.549 63.0696 98.9874 63.2639 99.5586 63.2639C99.9829 63.2639 100.312 63.1644 100.542 62.9653C100.772 62.7662 100.888 62.534 100.888 62.2709C100.888 62.0078 100.779 61.7969 100.559 61.6002C100.341 61.4034 99.8312 61.2162 99.0325 61.0408C97.7266 60.7469 96.7951 60.3583 96.2382 59.87C95.6765 59.3842 95.3968 58.7632 95.3968 58.0095C95.3968 57.5142 95.5414 57.0473 95.8281 56.6065C96.1149 56.1656 96.5463 55.8196 97.1222 55.5684C97.6981 55.3171 98.4874 55.1915 99.4923 55.1915C100.725 55.1915 101.663 55.4214 102.31 55.8788C102.957 56.3363 103.341 57.0662 103.464 58.064L100.658 58.2276C100.585 57.7938 100.426 57.4786 100.189 57.2795C99.9497 57.0828 99.6202 56.9833 99.2007 56.9833C98.8547 56.9833 98.594 57.0568 98.4186 57.2037C98.2432 57.3507 98.1555 57.5284 98.1555 57.7393C98.1555 57.8934 98.229 58.0309 98.3736 58.1541C98.5134 58.2821 98.8476 58.4006 99.3738 58.5096C100.675 58.7893 101.609 59.0737 102.17 59.3605C102.734 59.6472 103.145 60.0027 103.4 60.4294C103.656 60.8536 103.784 61.33 103.784 61.8561C103.784 62.4747 103.614 63.0435 103.272 63.5649C102.931 64.0864 102.452 64.4821 101.839 64.7523C101.225 65.0225 100.452 65.1576 99.5183 65.1576C97.8782 65.1576 96.743 64.8424 96.1126 64.212C95.4821 63.5815 95.1242 62.7781 95.0413 61.8064L95.0342 61.804Z" fill="white"/>
<path d="M108.807 55.355H111.791V64.9917H108.807V55.355Z" fill="white"/>
<path d="M113.409 61.804L116.244 61.6262C116.305 62.086 116.431 62.4368 116.618 62.6785C116.924 63.0696 117.362 63.2639 117.934 63.2639C118.358 63.2639 118.687 63.1644 118.917 62.9653C119.147 62.7662 119.263 62.534 119.263 62.2709C119.263 62.0078 119.154 61.7969 118.934 61.6002C118.716 61.4034 118.206 61.2162 117.407 61.0408C116.102 60.7469 115.17 60.3583 114.613 59.87C114.051 59.3842 113.772 58.7632 113.772 58.0095C113.772 57.5142 113.916 57.0473 114.203 56.6065C114.49 56.1656 114.921 55.8196 115.497 55.5684C116.073 55.3171 116.862 55.1915 117.867 55.1915C119.1 55.1915 120.038 55.4214 120.685 55.8788C121.332 56.3363 121.716 57.0662 121.839 58.064L119.033 58.2276C118.96 57.7938 118.801 57.4786 118.564 57.2795C118.325 57.0828 117.995 56.9833 117.576 56.9833C117.23 56.9833 116.969 57.0568 116.794 57.2037C116.618 57.3507 116.531 57.5284 116.531 57.7393C116.531 57.8934 116.604 58.0309 116.749 58.1541C116.888 58.2821 117.223 58.4006 117.749 58.5096C119.05 58.7893 119.984 59.0737 120.545 59.3605C121.109 59.6472 121.52 60.0027 121.775 60.4294C122.031 60.8536 122.159 61.33 122.159 61.8561C122.159 62.4747 121.989 63.0435 121.647 63.5649C121.306 64.0864 120.827 64.4821 120.214 64.7523C119.6 65.0225 118.827 65.1576 117.893 65.1576C116.253 65.1576 115.118 64.8424 114.488 64.212C113.857 63.5815 113.499 62.7781 113.416 61.8064L113.409 61.804Z" fill="white"/>
<path d="M37.8502 69.4569L39.1276 68.5089H43.1709V78.2593C43.1709 80.307 42.9885 81.8641 42.6258 82.933C42.2632 84.0019 41.5332 84.9073 40.4335 85.6491C39.3362 86.3909 37.9307 86.763 36.2172 86.763C34.4065 86.763 33.001 86.5189 32.0056 86.0283C31.0102 85.5377 30.2399 84.8219 29.6972 83.8787C29.1544 82.9354 28.8345 81.7717 28.7373 80.3828L34.0391 79.66C34.0462 80.4516 34.1173 81.0393 34.2477 81.4233C34.378 81.8072 34.5985 82.1177 34.9089 82.3523C35.1222 82.5088 35.4232 82.5846 35.8143 82.5846C36.4352 82.5846 36.8903 82.3547 37.1794 81.8926C37.4686 81.4328 37.6132 80.6554 37.6132 79.5628L37.8502 69.4545V69.4569Z" fill="white" stroke="white" stroke-width="0.474011" stroke-miterlimit="10"/>
<path d="M57.2514 83.4947H50.9565L50.082 86.4573H44.4199L51.1651 68.5112H57.2135L63.9563 86.4573H58.1497L57.2514 83.4947ZM56.1019 79.6126L54.1206 73.1613L52.1605 79.6126H56.1019Z" fill="white" stroke="white" stroke-width="0.474011" stroke-miterlimit="10"/>
<path d="M77.214 79.1101L82.075 80.5795C81.7479 81.9423 81.2336 83.0799 80.5321 83.9947C79.8306 84.9096 78.9584 85.5993 77.9179 86.0638C76.8775 86.5283 75.5526 86.7606 73.9457 86.7606C71.9952 86.7606 70.4025 86.4762 69.1653 85.9097C67.9281 85.3433 66.8616 84.3455 65.9634 82.9187C65.0651 81.492 64.6172 79.6646 64.6172 77.4368C64.6172 74.4671 65.4064 72.1871 66.9849 70.5921C68.5633 68.997 70.7983 68.2007 73.6874 68.2007C75.9484 68.2007 77.726 68.6581 79.0176 69.5729C80.3117 70.4878 81.2716 71.8909 81.8996 73.7845L77.0031 74.8748C76.8324 74.3273 76.6523 73.9291 76.4651 73.6755C76.1546 73.2513 75.7754 72.9242 75.3275 72.6967C74.8795 72.4692 74.3771 72.353 73.8225 72.353C72.5664 72.353 71.6017 72.8578 70.9334 73.8699C70.4262 74.6188 70.175 75.7967 70.175 77.4036C70.175 79.3921 70.476 80.7572 71.0803 81.4943C71.6847 82.2314 72.5332 82.6011 73.6258 82.6011C74.7184 82.6011 75.4886 82.3025 76.0314 81.7076C76.5741 81.1127 76.9675 80.2477 77.2117 79.1124L77.214 79.1101Z" fill="white" stroke="white" stroke-width="0.474011" stroke-miterlimit="10"/>
<path d="M84.0708 77.4961C84.0708 74.5667 84.8861 72.2843 86.5191 70.6537C88.152 69.0231 90.4249 68.2054 93.3377 68.2054C96.2505 68.2054 98.6253 69.0065 100.242 70.611C101.858 72.2156 102.666 74.46 102.666 77.3491C102.666 79.4466 102.313 81.1673 101.607 82.5087C100.901 83.8502 99.8814 84.8954 98.5471 85.6419C97.2128 86.3885 95.549 86.763 93.5581 86.763C91.5673 86.763 89.8585 86.4407 88.5336 85.796C87.2064 85.1513 86.1327 84.1322 85.308 82.7363C84.4832 81.3403 84.0708 79.5936 84.0708 77.4961ZM89.6167 77.5198C89.6167 79.3305 89.9533 80.634 90.6264 81.4256C91.2995 82.2172 92.2167 82.613 93.3756 82.613C94.5346 82.613 95.4897 82.2267 96.1415 81.4493C96.7933 80.6743 97.1203 79.2831 97.1203 77.2756C97.1203 75.5858 96.779 74.351 96.0988 73.5736C95.4163 72.7939 94.4919 72.4052 93.3259 72.4052C92.1598 72.4052 91.309 72.801 90.6335 73.5926C89.9556 74.3842 89.6167 75.6948 89.6167 77.5221V77.5198Z" fill="white" stroke="white" stroke-width="0.474011" stroke-miterlimit="10"/>
<path d="M105.665 68.5089H116.045C117.776 68.5089 119.103 68.9378 120.029 69.7934C120.956 70.6514 121.418 71.7108 121.418 72.9764C121.418 74.0382 121.089 74.9483 120.428 75.7067C119.987 76.2139 119.342 76.6121 118.494 76.906C119.783 77.2164 120.731 77.7497 121.34 78.5034C121.947 79.2594 122.253 80.2074 122.253 81.3498C122.253 82.2812 122.037 83.1179 121.603 83.8597C121.169 84.6015 120.579 85.1893 119.828 85.623C119.363 85.8932 118.662 86.0876 117.723 86.2108C116.474 86.3743 115.647 86.4549 115.237 86.4549H105.665V68.5089ZM111.26 75.5479H113.673C114.538 75.5479 115.14 75.3986 115.479 75.1C115.818 74.8013 115.986 74.3724 115.986 73.8083C115.986 73.2869 115.818 72.8769 115.479 72.583C115.14 72.2891 114.55 72.1421 113.711 72.1421H111.263V75.5455L111.26 75.5479ZM111.26 82.5988H114.088C115.043 82.5988 115.716 82.4306 116.107 82.0916C116.498 81.7527 116.695 81.2977 116.695 80.7265C116.695 80.1956 116.5 79.769 116.114 79.4467C115.725 79.1243 115.048 78.9632 114.076 78.9632H111.26V82.5988Z" fill="white" stroke="white" stroke-width="0.474011" stroke-miterlimit="10"/>
</g>
<defs>
<clipPath id="clip0_402_1609">
<rect width="122.489" height="87" fill="white"/>
</clipPath>
</defs>
</svg>
